# xmcd
#
# Track frame offsets: 
#        150
#        14100
#        29792
#        45455
#        72877
#        87965
#        102210
#        123540
#        142475
#        164037
#        183370
#        201305
#        223662
#        232625
#        248777
#        262585
#
# Disc length: 3923 seconds
#
# Revision: 1
# Processed by: cddbd v1.5.2PL0 Copyright (c) Steve Scherf et al.
# Submitted via: ExactAudioCopy v0.99pb5
#
DISCID=ec0f5110
DTITLE=Johnny Copeland - When The Rain Starts Fallin'
DYEAR=1987
DGENRE=Blues
TTITLE0=Midnight Fantasy
TTITLE1=Make My Home Where I Hang My Hat
TTITLE2=Down On Bended Knee
TTITLE3=Jessanne
TTITLE4=Bozalimalamu
TTITLE5=Devil's Hand
TTITLE6=Third Party
TTITLE7=Conakry
TTITLE8=Old Man Blues
TTITLE9=When the Rain Starts Fallin'
TTITLE10=Same Thing
TTITLE11=I Wish I Was Single
TTITLE12=Rock'n' Roll Lilly
TTITLE13=North Carolina
TTITLE14=Big Time
TTITLE15=St. Louis Blues
EXTD=
EXTT0=
EXTT1=
EXTT2=
EXTT3=
EXTT4=
EXTT5=
EXTT6=
EXTT7=
EXTT8=
EXTT9=
EXTT10=
EXTT11=
EXTT12=
EXTT13=
EXTT14=
EXTT15=
PLAYORDER=
